<svg width="24" height="24" viewBox="0 0 18 18" fill="none" xmlns="http://www.w3.org/2000/svg">
<g clip-path="url(#clip0_266_313)">
<path d="M2.8125 12.9375H0.5625C0.413316 12.9375 0.270242 12.9968 0.164752 13.1023C0.0592632 13.2077 0 13.3508 0 13.5L0 15.75C0 15.8992 0.0592632 16.0423 0.164752 16.1477C0.270242 16.2532 0.413316 16.3125 0.5625 16.3125H2.8125C2.96168 16.3125 3.10476 16.2532 3.21025 16.1477C3.31574 16.0423 3.375 15.8992 3.375 15.75V13.5C3.375 13.3508 3.31574 13.2077 3.21025 13.1023C3.10476 12.9968 2.96168 12.9375 2.8125 12.9375ZM2.8125 1.6875H0.5625C0.413316 1.6875 0.270242 1.74676 0.164752 1.85225C0.0592632 1.95774 0 2.10082 0 2.25L0 4.5C0 4.64918 0.0592632 4.79226 0.164752 4.89775C0.270242 5.00324 0.413316 5.0625 0.5625 5.0625H2.8125C2.96168 5.0625 3.10476 5.00324 3.21025 4.89775C3.31574 4.79226 3.375 4.64918 3.375 4.5V2.25C3.375 2.10082 3.31574 1.95774 3.21025 1.85225C3.10476 1.74676 2.96168 1.6875 2.8125 1.6875ZM2.8125 7.3125H0.5625C0.413316 7.3125 0.270242 7.37176 0.164752 7.47725C0.0592632 7.58274 0 7.72582 0 7.875L0 10.125C0 10.2742 0.0592632 10.4173 0.164752 10.5227C0.270242 10.6282 0.413316 10.6875 0.5625 10.6875H2.8125C2.96168 10.6875 3.10476 10.6282 3.21025 10.5227C3.31574 10.4173 3.375 10.2742 3.375 10.125V7.875C3.375 7.72582 3.31574 7.58274 3.21025 7.47725C3.10476 7.37176 2.96168 7.3125 2.8125 7.3125ZM17.4375 13.5H6.1875C6.03832 13.5 5.89524 13.5593 5.78975 13.6648C5.68426 13.7702 5.625 13.9133 5.625 14.0625V15.1875C5.625 15.3367 5.68426 15.4798 5.78975 15.5852C5.89524 15.6907 6.03832 15.75 6.1875 15.75H17.4375C17.5867 15.75 17.7298 15.6907 17.8352 15.5852C17.9407 15.4798 18 15.3367 18 15.1875V14.0625C18 13.9133 17.9407 13.7702 17.8352 13.6648C17.7298 13.5593 17.5867 13.5 17.4375 13.5ZM17.4375 2.25H6.1875C6.03832 2.25 5.89524 2.30926 5.78975 2.41475C5.68426 2.52024 5.625 2.66332 5.625 2.8125V3.9375C5.625 4.08668 5.68426 4.22976 5.78975 4.33525C5.89524 4.44074 6.03832 4.5 6.1875 4.5H17.4375C17.5867 4.5 17.7298 4.44074 17.8352 4.33525C17.9407 4.22976 18 4.08668 18 3.9375V2.8125C18 2.66332 17.9407 2.52024 17.8352 2.41475C17.7298 2.30926 17.5867 2.25 17.4375 2.25ZM17.4375 7.875H6.1875C6.03832 7.875 5.89524 7.93426 5.78975 8.03975C5.68426 8.14524 5.625 8.28832 5.625 8.4375V9.5625C5.625 9.71168 5.68426 9.85476 5.78975 9.96025C5.89524 10.0657 6.03832 10.125 6.1875 10.125H17.4375C17.5867 10.125 17.7298 10.0657 17.8352 9.96025C17.9407 9.85476 18 9.71168 18 9.5625V8.4375C18 8.28832 17.9407 8.14524 17.8352 8.03975C17.7298 7.93426 17.5867 7.875 17.4375 7.875Z" fill="#A3C62C"/>
</g>
<defs>
<clipPath id="clip0_266_313">
<rect width="18" height="18" fill="white"/>
</clipPath>
</defs>
</svg>
