<svg width="18" height="16" viewBox="0 0 18 16" fill="none" xmlns="http://www.w3.org/2000/svg">
<path d="M2.8125 11.9375H0.5625C0.413316 11.9375 0.270242 11.9968 0.164752 12.1023C0.0592632 12.2077 0 12.3508 0 12.5L0 14.75C0 14.8992 0.0592632 15.0423 0.164752 15.1477C0.270242 15.2532 0.413316 15.3125 0.5625 15.3125H2.8125C2.96168 15.3125 3.10476 15.2532 3.21025 15.1477C3.31574 15.0423 3.375 14.8992 3.375 14.75V12.5C3.375 12.3508 3.31574 12.2077 3.21025 12.1023C3.10476 11.9968 2.96168 11.9375 2.8125 11.9375ZM2.8125 0.6875H0.5625C0.413316 0.6875 0.270242 0.746763 0.164752 0.852252C0.0592632 0.957742 0 1.10082 0 1.25L0 3.5C0 3.64918 0.0592632 3.79226 0.164752 3.89775C0.270242 4.00324 0.413316 4.0625 0.5625 4.0625H2.8125C2.96168 4.0625 3.10476 4.00324 3.21025 3.89775C3.31574 3.79226 3.375 3.64918 3.375 3.5V1.25C3.375 1.10082 3.31574 0.957742 3.21025 0.852252C3.10476 0.746763 2.96168 0.6875 2.8125 0.6875ZM2.8125 6.3125H0.5625C0.413316 6.3125 0.270242 6.37176 0.164752 6.47725C0.0592632 6.58274 0 6.72582 0 6.875L0 9.125C0 9.27418 0.0592632 9.41726 0.164752 9.52275C0.270242 9.62824 0.413316 9.6875 0.5625 9.6875H2.8125C2.96168 9.6875 3.10476 9.62824 3.21025 9.52275C3.31574 9.41726 3.375 9.27418 3.375 9.125V6.875C3.375 6.72582 3.31574 6.58274 3.21025 6.47725C3.10476 6.37176 2.96168 6.3125 2.8125 6.3125ZM17.4375 12.5H6.1875C6.03832 12.5 5.89524 12.5593 5.78975 12.6648C5.68426 12.7702 5.625 12.9133 5.625 13.0625V14.1875C5.625 14.3367 5.68426 14.4798 5.78975 14.5852C5.89524 14.6907 6.03832 14.75 6.1875 14.75H17.4375C17.5867 14.75 17.7298 14.6907 17.8352 14.5852C17.9407 14.4798 18 14.3367 18 14.1875V13.0625C18 12.9133 17.9407 12.7702 17.8352 12.6648C17.7298 12.5593 17.5867 12.5 17.4375 12.5ZM17.4375 1.25H6.1875C6.03832 1.25 5.89524 1.30926 5.78975 1.41475C5.68426 1.52024 5.625 1.66332 5.625 1.8125V2.9375C5.625 3.08668 5.68426 3.22976 5.78975 3.33525C5.89524 3.44074 6.03832 3.5 6.1875 3.5H17.4375C17.5867 3.5 17.7298 3.44074 17.8352 3.33525C17.9407 3.22976 18 3.08668 18 2.9375V1.8125C18 1.66332 17.9407 1.52024 17.8352 1.41475C17.7298 1.30926 17.5867 1.25 17.4375 1.25ZM17.4375 6.875H6.1875C6.03832 6.875 5.89524 6.93426 5.78975 7.03975C5.68426 7.14524 5.625 7.28832 5.625 7.4375V8.5625C5.625 8.71168 5.68426 8.85476 5.78975 8.96025C5.89524 9.06574 6.03832 9.125 6.1875 9.125H17.4375C17.5867 9.125 17.7298 9.06574 17.8352 8.96025C17.9407 8.85476 18 8.71168 18 8.5625V7.4375C18 7.28832 17.9407 7.14524 17.8352 7.03975C17.7298 6.93426 17.5867 6.875 17.4375 6.875Z" fill="#A3C62C"/>
</svg>
