<svg width="137" height="40" viewBox="0 0 137 40" fill="none" xmlns="http://www.w3.org/2000/svg">
<g clip-path="url(#clip0_93_1311)">
<path d="M132.133 0C134.486 0 136.429 1.94221 136.429 4.2933V34.9598C136.429 37.3109 134.486 39.2531 132.133 39.2531H4.29536C1.94314 39.2531 0 37.3109 0 34.9598V4.2933C0 1.94221 1.94314 0 4.29536 0H132.133Z" fill="black"/>
<path d="M47.658 9.60878C47.658 10.4266 47.4534 11.1421 46.9421 11.6532C46.3284 12.2665 45.6125 12.5732 44.6921 12.5732C43.7717 12.5732 43.0558 12.2665 42.4422 11.6532C41.8285 11.0399 41.5217 10.3243 41.5217 9.40434C41.5217 8.48435 41.8285 7.7688 42.4422 7.15547C43.0558 6.54214 43.7717 6.23547 44.6921 6.23547C45.1012 6.23547 45.5103 6.3377 45.9194 6.54214C46.3284 6.74658 46.6352 6.95102 46.8398 7.25769L46.3284 7.7688C45.9194 7.25769 45.408 7.05325 44.6921 7.05325C44.0785 7.05325 43.4649 7.25769 43.0558 7.7688C42.5444 8.17768 42.3399 8.79101 42.3399 9.50656C42.3399 10.2221 42.5444 10.8354 43.0558 11.2443C43.5671 11.6532 44.0785 11.9599 44.6921 11.9599C45.408 11.9599 45.9194 11.7554 46.4307 11.2443C46.7375 10.9377 46.9421 10.5288 46.9421 10.0177H44.6921V9.1999H47.658V9.60878ZM52.3624 7.05325H49.6011V8.99546H52.1578V9.71101H49.6011V11.6532H52.3624V12.471H48.7829V6.3377H52.3624V7.05325ZM55.7373 12.471H54.9192V7.05325H53.1806V6.3377H57.4759V7.05325H55.7373V12.471ZM60.4418 12.471V6.3377H61.2599V12.471H60.4418ZM64.7371 12.471H63.9189V7.05325H62.1803V6.3377H66.3734V7.05325H64.6348L64.7371 12.471ZM74.4528 11.6532C73.8392 12.2665 73.1233 12.5732 72.2029 12.5732C71.2824 12.5732 70.5665 12.2665 69.9529 11.6532C69.3393 11.0399 69.0325 10.3243 69.0325 9.40434C69.0325 8.48435 69.3393 7.7688 69.9529 7.15547C70.5665 6.54214 71.2824 6.23547 72.2029 6.23547C73.1233 6.23547 73.8392 6.54214 74.4528 7.15547C75.0664 7.7688 75.3732 8.48435 75.3732 9.40434C75.3732 10.3243 75.0664 11.0399 74.4528 11.6532ZM70.5665 11.1421C70.9756 11.551 71.5892 11.8577 72.2029 11.8577C72.8165 11.8577 73.4301 11.6532 73.8392 11.1421C74.2483 10.7332 74.5551 10.1199 74.5551 9.40434C74.5551 8.68879 74.3505 8.07546 73.8392 7.66658C73.4301 7.25769 72.8165 6.95102 72.2029 6.95102C71.5892 6.95102 70.9756 7.15547 70.5665 7.66658C70.1574 8.07546 69.8506 8.68879 69.8506 9.40434C69.8506 10.1199 70.0552 10.7332 70.5665 11.1421ZM76.4982 12.471V6.3377H77.4186L80.3845 11.1421V6.3377H81.2026V12.471H80.3845L77.2141 7.46213V12.471H76.4982Z" fill="white" stroke="white" stroke-width="0.5"/>
<path d="M68.8281 21.4665C66.3736 21.4665 64.4305 23.3065 64.4305 25.862C64.4305 28.3154 66.3736 30.2576 68.8281 30.2576C71.2826 30.2576 73.2257 28.4176 73.2257 25.862C73.2257 23.2043 71.2826 21.4665 68.8281 21.4665ZM68.8281 28.4176C67.4986 28.4176 66.3736 27.2931 66.3736 25.7598C66.3736 24.2265 67.4986 23.1021 68.8281 23.1021C70.1576 23.1021 71.2826 24.1243 71.2826 25.7598C71.2826 27.2931 70.1576 28.4176 68.8281 28.4176ZM59.3169 21.4665C56.8625 21.4665 54.9193 23.3065 54.9193 25.862C54.9193 28.3154 56.8625 30.2576 59.3169 30.2576C61.7714 30.2576 63.7146 28.4176 63.7146 25.862C63.7146 23.2043 61.7714 21.4665 59.3169 21.4665ZM59.3169 28.4176C57.9874 28.4176 56.8625 27.2931 56.8625 25.7598C56.8625 24.2265 57.9874 23.1021 59.3169 23.1021C60.6465 23.1021 61.7714 24.1243 61.7714 25.7598C61.7714 27.2931 60.6465 28.4176 59.3169 28.4176ZM47.9649 22.7954V24.6354H52.3626C52.2603 25.6576 51.8512 26.4754 51.3399 26.9865C50.7262 27.5998 49.7035 28.3154 47.9649 28.3154C45.2036 28.3154 43.1582 26.1687 43.1582 23.4087C43.1582 20.6488 45.3059 18.5021 47.9649 18.5021C49.3967 18.5021 50.5217 19.1154 51.3399 19.831L52.6694 18.5021C51.5444 17.4799 50.1126 16.6621 48.0672 16.6621C44.3855 16.6621 41.2151 19.7288 41.2151 23.4087C41.2151 27.0887 44.3855 30.1554 48.0672 30.1554C50.1126 30.1554 51.5444 29.542 52.7716 28.2131C53.9989 26.9865 54.408 25.2487 54.408 23.9198C54.408 23.511 54.408 23.1021 54.3057 22.7954H47.9649ZM94.3957 24.2265C93.9866 23.2043 92.9639 21.4665 90.714 21.4665C88.464 21.4665 86.6231 23.2043 86.6231 25.862C86.6231 28.3154 88.464 30.2576 90.9185 30.2576C92.8616 30.2576 94.0889 29.0309 94.498 28.3154L93.0662 27.2931C92.5548 28.0087 91.9412 28.5198 90.9185 28.5198C89.8958 28.5198 89.2822 28.1109 88.7708 27.1909L94.6002 24.7376L94.3957 24.2265ZM88.464 25.6576C88.464 24.0221 89.7935 23.1021 90.714 23.1021C91.4299 23.1021 92.1458 23.511 92.3503 24.0221L88.464 25.6576ZM83.6573 29.8487H85.6004V17.071H83.6573V29.8487ZM80.5892 22.3865C80.0778 21.8754 79.2597 21.3643 78.237 21.3643C76.0893 21.3643 74.0439 23.3065 74.0439 25.7598C74.0439 28.2131 75.987 30.0531 78.237 30.0531C79.2597 30.0531 80.0778 29.542 80.4869 29.0309H80.5892V29.6442C80.5892 31.2798 79.6688 32.1998 78.237 32.1998C77.112 32.1998 76.2938 31.382 76.0893 30.6665L74.453 31.382C74.9643 32.5064 76.1916 33.9375 78.3392 33.9375C80.5892 33.9375 82.4301 32.6087 82.4301 29.4398V21.671H80.5892V22.3865ZM78.3392 28.4176C77.0097 28.4176 75.8848 27.2931 75.8848 25.7598C75.8848 24.2265 77.0097 23.1021 78.3392 23.1021C79.6688 23.1021 80.6915 24.2265 80.6915 25.7598C80.6915 27.2931 79.6688 28.4176 78.3392 28.4176ZM103.293 17.071H98.6911V29.8487H100.634V25.0443H103.293C105.441 25.0443 107.486 23.511 107.486 21.0576C107.486 18.6043 105.441 17.071 103.293 17.071ZM103.395 23.2043H100.634V18.8088H103.395C104.827 18.8088 105.645 20.0354 105.645 20.9554C105.543 22.0799 104.725 23.2043 103.395 23.2043ZM115.157 21.3643C113.725 21.3643 112.293 21.9776 111.782 23.3065L113.52 24.0221C113.929 23.3065 114.543 23.1021 115.259 23.1021C116.282 23.1021 117.202 23.7154 117.304 24.7376V24.8398C116.997 24.6354 116.179 24.3287 115.361 24.3287C113.52 24.3287 111.679 25.3509 111.679 27.1909C111.679 28.9287 113.213 30.0531 114.85 30.0531C116.179 30.0531 116.793 29.4398 117.304 28.8265H117.407V29.8487H119.247V24.9421C119.043 22.6932 117.304 21.3643 115.157 21.3643ZM114.952 28.4176C114.338 28.4176 113.418 28.1109 113.418 27.2931C113.418 26.2709 114.543 25.9643 115.463 25.9643C116.282 25.9643 116.691 26.1687 117.202 26.3732C116.997 27.5998 115.975 28.4176 114.952 28.4176ZM125.69 21.671L123.543 27.1909H123.44L121.191 21.671H119.145L122.52 29.4398L120.577 33.7331H122.52L127.736 21.671H125.69ZM108.509 29.8487H110.452V17.071H108.509V29.8487Z" fill="white"/>
<path fill-rule="evenodd" clip-rule="evenodd" d="M9.81802 6.84888C9.51121 7.15554 9.40894 7.66665 9.40894 8.27998V30.8709C9.40894 31.4843 9.61348 31.9954 9.92029 32.302L10.0226 32.4043L22.7041 19.7288V19.5243L9.81802 6.84888Z" fill="url(#paint0_linear_93_1311)"/>
<path fill-rule="evenodd" clip-rule="evenodd" d="M26.7949 24.0221L22.6018 19.831V19.5243L26.7949 15.3333L26.8972 15.4355L31.9084 18.2977C33.3402 19.1154 33.3402 20.4443 31.9084 21.2621L26.7949 24.0221Z" fill="url(#paint1_linear_93_1311)"/>
<path fill-rule="evenodd" clip-rule="evenodd" d="M26.897 23.9199L22.6017 19.6266L9.81787 32.4043C10.3292 32.9154 11.0451 32.9154 11.9655 32.5065L26.897 23.9199Z" fill="url(#paint2_linear_93_1311)"/>
<path fill-rule="evenodd" clip-rule="evenodd" d="M26.897 15.3332L11.9655 6.84885C11.0451 6.33774 10.3292 6.43996 9.81787 6.95107L22.6017 19.6265L26.897 15.3332Z" fill="url(#paint3_linear_93_1311)"/>
<path opacity="0.2" fill-rule="evenodd" clip-rule="evenodd" d="M26.7948 23.8176L11.9655 32.1998C11.1474 32.7109 10.4315 32.6087 9.92014 32.1998L9.81787 32.302L9.92014 32.4042C10.4315 32.8131 11.1474 32.9153 11.9655 32.4042L26.7948 23.8176Z" fill="black"/>
<path opacity="0.12" d="M9.81802 32.1998C9.51121 31.8932 9.40894 31.3821 9.40894 30.7687V30.871C9.40894 31.4843 9.61348 31.9954 9.92029 32.3021V32.1998H9.81802ZM31.9084 20.9555L26.7949 23.8177L26.8972 23.9199L31.9084 21.0577C32.6243 20.6488 32.9311 20.1377 32.9311 19.6266C32.9311 20.1377 32.522 20.5466 31.9084 20.9555Z" fill="black"/>
<path opacity="0.25" fill-rule="evenodd" clip-rule="evenodd" d="M11.9657 6.95104L31.9084 18.2976C32.522 18.7065 32.9311 19.1154 32.9311 19.6265C32.9311 19.1154 32.6243 18.6043 31.9084 18.1954L11.9657 6.95104C10.5339 6.03105 9.40894 6.64438 9.40894 8.27992V8.38215C9.40894 6.84882 10.5339 6.13327 11.9657 6.95104Z" fill="white"/>
</g>
<defs>
<linearGradient id="paint0_linear_93_1311" x1="820.734" y1="130.026" x2="-269.411" y2="1219.59" gradientUnits="userSpaceOnUse">
<stop stop-color="#00A0FF"/>
<stop offset="0.007" stop-color="#00A1FF"/>
<stop offset="0.26" stop-color="#00BEFF"/>
<stop offset="0.512" stop-color="#00D2FF"/>
<stop offset="0.76" stop-color="#00DFFF"/>
<stop offset="1" stop-color="#00E3FF"/>
</linearGradient>
<linearGradient id="paint1_linear_93_1311" x1="1140.83" y1="449.775" x2="-1333.81" y2="449.775" gradientUnits="userSpaceOnUse">
<stop stop-color="#FFE000"/>
<stop offset="0.409" stop-color="#FFBD00"/>
<stop offset="0.775" stop-color="#FFA500"/>
<stop offset="1" stop-color="#FF9C00"/>
</linearGradient>
<linearGradient id="paint2_linear_93_1311" x1="1484.15" y1="425.371" x2="-372.302" y2="2280.93" gradientUnits="userSpaceOnUse">
<stop stop-color="#FF3A44"/>
<stop offset="1" stop-color="#C31162"/>
</linearGradient>
<linearGradient id="paint3_linear_93_1311" x1="-311.209" y1="-143.756" x2="514.96" y2="682.018" gradientUnits="userSpaceOnUse">
<stop stop-color="#32A071"/>
<stop offset="0.069" stop-color="#2DA771"/>
<stop offset="0.476" stop-color="#15CF74"/>
<stop offset="0.801" stop-color="#06E775"/>
<stop offset="1" stop-color="#00F076"/>
</linearGradient>
<clipPath id="clip0_93_1311">
<rect width="137" height="40" fill="white"/>
</clipPath>
</defs>
</svg>
