<svg width="18" height="18" viewBox="0 0 18 18" fill="none" xmlns="http://www.w3.org/2000/svg">
<path d="M13.5 11.25H4.5L1.5 14.25V2.25C1.5 2.05109 1.57902 1.86032 1.71967 1.71967C1.86032 1.57902 2.05109 1.5 2.25 1.5H13.5C13.6989 1.5 13.8897 1.57902 14.0303 1.71967C14.171 1.86032 14.25 2.05109 14.25 2.25V10.5C14.25 10.6989 14.171 10.8897 14.0303 11.0303C13.8897 11.171 13.6989 11.25 13.5 11.25ZM17.25 6.75V17.25L14.25 14.25H6C5.80109 14.25 5.61032 14.171 5.46967 14.0303C5.32902 13.8897 5.25 13.6989 5.25 13.5V12.75H15.75V6H16.5C16.6989 6 16.8897 6.07902 17.0303 6.21967C17.171 6.36032 17.25 6.55109 17.25 6.75ZM6.1425 3C5.49 3 4.965 3.15 4.56 3.4425C4.17 3.75 3.975 4.1775 3.9825 4.77L3.99 4.7925H5.4375C5.445 4.5675 5.5125 4.395 5.6475 4.275C5.78638 4.15983 5.96212 4.09859 6.1425 4.1025C6.375 4.1025 6.57 4.1775 6.705 4.3125C6.84 4.455 6.9 4.65 6.9 4.875C6.9 5.115 6.8475 5.3175 6.7275 5.49C6.6225 5.6625 6.465 5.8125 6.27 5.9325C5.8875 6.1875 5.625 6.4125 5.4825 6.615C5.3325 6.81 5.25 7.125 5.25 7.5H6.75C6.75 7.2675 6.78 7.08 6.8475 6.945C6.915 6.81 7.0425 6.675 7.23 6.555C7.5675 6.375 7.845 6.1575 8.0625 5.8575C8.28 5.5575 8.3925 5.25 8.3925 4.875C8.3925 4.305 8.19 3.8475 7.785 3.51C7.3875 3.1725 6.84 3 6.1425 3ZM5.25 8.25V9.75H6.75V8.25H5.25ZM9.75 9.75H11.25V8.25H9.75V9.75ZM9.75 3V7.5H11.25V3H9.75Z" fill="white"/>
</svg>
