<svg width="125" height="40" viewBox="0 0 125 40" fill="none" xmlns="http://www.w3.org/2000/svg">
<g clip-path="url(#clip0_93_1326)">
<path fill-rule="evenodd" clip-rule="evenodd" d="M8.00828 40H7.05993C6.4277 40 5.69009 39.8953 5.05786 39.7906C4.42563 39.6859 3.89877 39.4764 3.26654 39.267C2.73967 38.9529 2.21281 38.6387 1.79133 38.2199C1.36984 37.801 0.948349 37.2775 0.737605 36.7539C0.421488 36.2304 0.316116 35.6021 0.210744 34.9738C0.105372 34.3456 0 33.7173 0 32.9843V6.91099C0 6.28272 0.105372 5.54974 0.210744 4.92147C0.316116 4.39791 0.52686 3.76963 0.842977 3.24607C1.15909 2.72251 1.47521 2.19895 1.8967 1.7801C2.31819 1.36126 2.84505 1.04712 3.37191 0.732984C3.89877 0.418848 4.531 0.314136 5.16323 0.209424C5.79547 0.104712 6.4277 0 7.1653 0H117.385C118.017 0 118.649 0.104712 119.387 0.209424C120.019 0.314136 120.546 0.52356 121.178 0.732984C122.232 1.25654 123.18 2.19895 123.707 3.24607C124.023 3.76963 124.128 4.39791 124.234 4.92147C124.339 5.54974 124.444 6.28272 124.444 6.91099V32.9843C124.444 33.6126 124.339 34.2408 124.234 34.9738C124.128 35.6021 123.918 36.1257 123.707 36.7539C123.391 37.2775 123.075 37.801 122.653 38.2199C122.232 38.6387 121.705 39.0576 121.178 39.267C120.651 39.5812 120.019 39.7906 119.387 39.7906C118.754 39.8953 118.122 40 117.385 40H8.00828Z" fill="black"/>
<path d="M26.1389 20.4289C26.1389 18.6533 27.0795 16.9822 28.6473 16.0422C27.7066 14.6844 26.1389 13.8489 24.4667 13.7444C22.6899 13.5356 21.0177 14.7889 20.077 14.7889C19.1364 14.7889 17.7777 13.7444 16.3145 13.7444C14.3287 13.8489 12.5519 14.8933 11.6113 16.5644C9.62551 20.0111 11.0887 25.2333 13.0745 28.0533C14.0151 29.4111 15.1648 30.9778 16.628 30.9778C18.0912 30.8733 18.6138 30.0378 20.3906 30.0378C22.1673 30.0378 22.5854 30.9778 24.1531 30.9778C25.7208 30.9778 26.6615 29.62 27.6021 28.1578C28.3337 27.2178 28.8563 26.0689 29.1698 24.92C27.2886 24.2933 26.1389 22.4133 26.1389 20.4289ZM23.2125 11.9689C24.0486 10.9244 24.4667 9.67111 24.3621 8.31333C23.108 8.41778 21.8538 9.04444 21.0177 10.0889C20.1815 11.0289 19.7635 12.2822 19.868 13.64C21.2267 13.64 22.3764 13.0133 23.2125 11.9689ZM44.4291 27.5311H39.5168L38.3672 31.0822H36.2769L40.9801 18.1311H43.0704L47.7735 31.0822H45.6832L44.4291 27.5311ZM40.0394 25.9644H44.011L42.0252 20.22H41.9207L40.0394 25.9644ZM57.9115 26.3822C57.9115 29.3067 56.3438 31.1867 53.9399 31.1867C52.6858 31.2911 51.5361 30.56 51.0135 29.5156V34.2156H49.0277V21.6822H50.909V23.2489C51.5361 22.2044 52.6858 21.5778 53.9399 21.5778C56.2393 21.4733 57.9115 23.4578 57.9115 26.3822ZM55.8212 26.3822C55.8212 24.5022 54.8806 23.2489 53.3128 23.2489C51.8496 23.2489 50.8045 24.5022 50.8045 26.3822C50.8045 28.2622 51.8496 29.5156 53.3128 29.5156C54.8806 29.5156 55.8212 28.2622 55.8212 26.3822ZM68.2585 26.3822C68.2585 29.3067 66.6908 31.1867 64.2869 31.1867C63.0328 31.2911 61.8831 30.56 61.3605 29.5156V34.2156H59.3747V21.6822H61.256V23.2489C61.8831 22.2044 63.0328 21.5778 64.2869 21.5778C66.6908 21.4733 68.2585 23.4578 68.2585 26.3822ZM66.2727 26.3822C66.2727 24.5022 65.3321 23.2489 63.7644 23.2489C62.3011 23.2489 61.256 24.5022 61.256 26.3822C61.256 28.2622 62.3011 29.5156 63.7644 29.5156C65.3321 29.5156 66.2727 28.2622 66.2727 26.3822ZM75.1565 27.4267C75.261 28.68 76.5152 29.5156 78.292 29.5156C79.9642 29.5156 81.1139 28.68 81.1139 27.5311C81.1139 26.4867 80.3823 25.9644 78.71 25.5467L77.0378 25.1289C74.6339 24.6067 73.5888 23.4578 73.5888 21.6822C73.5888 19.4889 75.5746 17.9222 78.292 17.9222C81.0094 17.9222 82.8906 19.4889 82.9952 21.6822H81.0094C80.9048 20.4289 79.8597 19.5933 78.292 19.5933C76.7242 19.5933 75.6791 20.4289 75.6791 21.5778C75.6791 22.5178 76.4107 23.04 78.0829 23.4578L79.5462 23.7711C82.159 24.3978 83.3087 25.4422 83.3087 27.3222C83.3087 29.7244 81.4274 31.2911 78.292 31.2911C75.3655 31.2911 73.4843 29.8289 73.3798 27.4267H75.1565ZM87.2803 19.3844V21.5778H89.057V23.1444H87.2803V28.3667C87.2803 29.2022 87.5938 29.5156 88.4299 29.5156H89.057V31.0822C88.7435 31.1867 88.3254 31.1867 88.0119 31.1867C86.1306 31.1867 85.399 30.4556 85.399 28.68V23.2489H84.0403V21.6822H85.399V19.4889H87.2803V19.3844ZM90.2067 26.3822C90.2067 23.4578 91.9835 21.5778 94.7009 21.5778C97.4182 21.5778 99.195 23.4578 99.195 26.3822C99.195 29.4111 97.4182 31.1867 94.7009 31.1867C91.8789 31.1867 90.2067 29.3067 90.2067 26.3822ZM97.2092 26.3822C97.2092 24.2933 96.2686 23.1444 94.7009 23.1444C93.1331 23.1444 92.1925 24.2933 92.1925 26.3822C92.1925 28.4711 93.1331 29.62 94.7009 29.62C96.2686 29.62 97.2092 28.3667 97.2092 26.3822ZM100.763 21.5778H102.644V23.2489C102.853 22.2044 103.898 21.4733 104.943 21.5778C105.152 21.5778 105.361 21.5778 105.57 21.6822V23.4578C105.257 23.3533 104.943 23.3533 104.734 23.3533C103.689 23.3533 102.749 24.1889 102.749 25.2333V31.1867H100.763V21.5778ZM114.559 28.2622C114.35 29.9333 112.677 31.1867 110.483 31.1867C107.765 31.1867 105.988 29.3067 105.988 26.3822C105.988 23.4578 107.661 21.4733 110.378 21.4733C112.991 21.4733 114.663 23.2489 114.663 26.1733V26.8H107.974V26.9044C107.87 28.2622 108.81 29.4111 110.169 29.62H110.483C111.423 29.7244 112.364 29.2022 112.677 28.2622H114.559ZM107.974 25.4422H112.677C112.782 24.1889 111.737 23.1444 110.483 23.04H110.274C109.019 23.04 107.974 24.0844 107.974 25.4422ZM39.7259 8.31333C41.2936 8.20889 42.5478 9.35778 42.6523 10.82V11.3422C42.6523 13.3267 41.6071 14.4756 39.7259 14.4756H37.4265V8.20889L39.7259 8.31333ZM38.4717 13.7444H39.6214C40.6665 13.8489 41.6071 13.0133 41.7117 11.8644V11.4467C41.8162 10.4022 41.0846 9.35778 40.0394 9.25333H38.4717V13.7444ZM43.802 12.1778C43.6974 10.9244 44.6381 9.88 45.7878 9.77556C47.0419 9.67111 48.0871 10.6111 48.1916 11.76V12.1778C48.2961 13.4311 47.46 14.4756 46.2058 14.58C44.9516 14.6844 43.9065 13.8489 43.802 12.5956V12.1778ZM47.251 12.1778C47.251 11.1333 46.8329 10.6111 45.9968 10.6111C45.1607 10.6111 44.7426 11.2378 44.7426 12.1778C44.7426 13.2222 45.1607 13.8489 45.9968 13.8489C46.8329 13.8489 47.251 13.2222 47.251 12.1778ZM54.149 14.58H53.2083L52.2677 11.1333H52.1632L51.2225 14.58H50.2819L49.0277 9.88H49.9684L50.8045 13.4311H50.909L51.8496 9.88H52.7903L53.7309 13.4311H53.8354L54.6715 9.88H55.6122L54.149 14.58ZM56.5528 9.88H57.4935V10.6111H57.598C57.807 10.0889 58.4341 9.77556 58.9567 9.77556C59.7928 9.67111 60.5244 10.2978 60.6289 11.2378V14.58H59.6883V11.76C59.6883 11.0289 59.3747 10.6111 58.6431 10.6111C58.016 10.6111 57.4935 11.0289 57.4935 11.6556V14.58H56.5528V9.88ZM61.9876 8H62.9282V14.58H61.9876V8ZM64.1824 12.1778C64.0779 10.9244 64.914 9.88 66.1682 9.77556C67.4224 9.67111 68.4675 10.5067 68.5721 11.76V12.1778C68.6766 13.4311 67.8405 14.4756 66.5863 14.58C65.3321 14.6844 64.2869 13.8489 64.1824 12.5956V12.1778ZM67.7359 12.1778C67.7359 11.1333 67.3179 10.6111 66.4818 10.6111C65.6456 10.6111 65.2276 11.2378 65.2276 12.1778C65.2276 13.2222 65.6456 13.8489 66.4818 13.8489C67.2134 13.8489 67.7359 13.2222 67.7359 12.1778ZM69.6172 13.2222C69.6172 12.3867 70.2443 11.8644 71.394 11.8644L72.6481 11.76V11.3422C72.6481 10.82 72.3346 10.6111 71.7075 10.6111C71.1849 10.6111 70.8714 10.82 70.7669 11.1333H69.8262C69.9308 10.2978 70.6624 9.77556 71.7075 9.77556C72.8572 9.77556 73.5888 10.4022 73.5888 11.3422V14.58H72.6481V13.9533H72.5436C72.2301 14.4756 71.7075 14.6844 71.0804 14.6844C70.3488 14.7889 69.6172 14.1622 69.5127 13.4311C69.6172 13.3267 69.6172 13.3267 69.6172 13.2222ZM72.6481 12.8044V12.3867L71.4985 12.4911C70.8714 12.4911 70.5578 12.8044 70.5578 13.1178C70.5578 13.5356 70.9759 13.7444 71.394 13.7444C72.0211 13.9533 72.5436 13.5356 72.6481 12.8044C72.6481 12.9089 72.6481 12.9089 72.6481 12.8044ZM74.7385 12.1778C74.7385 10.7156 75.4701 9.77556 76.7242 9.77556C77.3513 9.77556 77.8739 10.0889 78.1875 10.6111H78.292V8H79.2326V14.58H78.292V13.8489H78.1875C77.8739 14.3711 77.3513 14.6844 76.7242 14.6844C75.5746 14.6844 74.7385 13.7444 74.7385 12.1778ZM75.7836 12.1778C75.7836 13.2222 76.2017 13.7444 77.0378 13.7444C77.8739 13.7444 78.292 13.1178 78.292 12.1778C78.292 11.2378 77.7694 10.6111 77.0378 10.6111C76.2017 10.6111 75.7836 11.2378 75.7836 12.1778ZM82.9952 12.1778C82.8906 10.9244 83.7268 9.88 84.9809 9.77556C86.2351 9.67111 87.2803 10.5067 87.3848 11.76V12.1778C87.4893 13.4311 86.6532 14.4756 85.399 14.58C84.1448 14.6844 83.0997 13.8489 82.9952 12.5956V12.1778ZM86.5487 12.1778C86.5487 11.1333 86.1306 10.6111 85.2945 10.6111C84.4584 10.6111 84.0403 11.2378 84.0403 12.1778C84.0403 13.2222 84.4584 13.8489 85.2945 13.8489C86.0261 13.8489 86.5487 13.2222 86.5487 12.1778ZM88.7435 9.88H89.6841V10.6111H89.7886C89.9977 10.0889 90.6248 9.77556 91.1473 9.77556C91.9835 9.67111 92.7151 10.2978 92.8196 11.2378V14.58H91.8789V11.76C91.8789 11.0289 91.5654 10.6111 90.8338 10.6111C90.2067 10.6111 89.6841 11.0289 89.6841 11.6556V14.58H88.7435V9.88ZM97.9408 8.73111V9.88H98.986V10.7156H97.9408V13.1178C97.9408 13.64 98.1498 13.8489 98.5679 13.8489H98.8815V14.58H98.3589C97.3137 14.58 96.8957 14.2667 96.8957 13.3267V10.7156H96.1641V9.98444H96.8957V8.73111H97.9408ZM100.24 8H101.181V10.6111H101.285C101.494 10.0889 102.121 9.67111 102.749 9.77556C103.585 9.77556 104.316 10.4022 104.421 11.2378V14.58H103.48V11.76C103.48 11.0289 103.167 10.6111 102.435 10.6111C101.808 10.6111 101.285 11.0289 101.285 11.6556V14.58H100.345V8H100.24ZM109.751 13.3267C109.542 14.1622 108.601 14.7889 107.765 14.6844C106.616 14.6844 105.57 13.7444 105.57 12.5956V12.2822C105.361 11.1333 106.198 9.98444 107.452 9.88H107.765C109.124 9.88 109.856 10.82 109.856 12.2822V12.5956H106.511V12.7C106.407 13.4311 106.929 13.9533 107.661 14.0578H107.765C108.183 14.1622 108.706 13.8489 108.915 13.5356H109.751V13.3267ZM106.407 11.76H108.81C108.81 11.1333 108.392 10.6111 107.765 10.5067H107.661C107.034 10.6111 106.407 11.1333 106.407 11.76Z" fill="white"/>
</g>
<defs>
<clipPath id="clip0_93_1326">
<rect width="125" height="40" fill="white"/>
</clipPath>
</defs>
</svg>
