<svg width="18" height="18" viewBox="0 0 18 18" fill="none" xmlns="http://www.w3.org/2000/svg">
<path d="M9.0002 0C6.05702 0 3.64502 2.4048 3.64502 5.33988C3.64502 6.47712 4.00826 7.53408 4.62296 8.40276L8.34662 14.8401C8.86808 15.5214 9.21476 15.392 9.64838 14.8041L13.7556 7.8147C13.8384 7.66458 13.9036 7.50474 13.9603 7.34148C14.2209 6.70635 14.3549 6.02641 14.3548 5.33988C14.355 2.4048 11.9437 0 9.0002 0ZM9.0002 2.502C10.5853 2.502 11.8456 3.75948 11.8456 5.33988C11.8456 6.92028 10.5853 8.17722 9.0002 8.17722C7.4153 8.17722 6.1544 6.92046 6.1544 5.33988C6.1544 3.75948 7.4153 2.50218 9.0002 2.50218V2.502Z" fill="white"/>
<path d="M12.4044 8.80347L12.3958 8.82615C12.3985 8.81931 12.4006 8.81229 12.4033 8.80545L12.4044 8.80347Z" fill="white"/>
<path d="M6.12113 12.4303C3.57845 12.7896 1.80005 13.6491 1.80005 14.9143C1.80005 16.6185 4.77149 18 9.00005 18C13.2286 18 16.2001 16.6185 16.2001 14.9143C16.2001 13.6491 14.4218 12.7896 11.8793 12.4303L11.5271 13.0301C13.4434 13.2959 14.7601 13.8546 14.7601 14.503C14.7601 15.412 12.1812 16.1487 9.00005 16.1487C5.81891 16.1487 3.24005 15.412 3.24005 14.503C3.23987 13.8568 4.54793 13.2986 6.47015 13.0317C6.35405 12.8312 6.23741 12.631 6.12113 12.4303Z" fill="white"/>
</svg>
