<svg version="1.2" xmlns="http://www.w3.org/2000/svg" viewBox="0 0 57 59" width="35" height="35">
	<title>Group 56</title>
	<style>
		.s0 { fill: #2d3846 } 
		.s1 { fill: #000000 } 
		.s2 { fill: #ffffff } 
	</style>
	<path id="Icon metro-location" fill-rule="evenodd" class="s0" d="m47 18.6c0 17.5-17.5 38.5-17.5 38.5 0 0-17.5-21-17.5-38.5 0-9.7 7.8-17.5 17.5-17.5 9.7 0 17.5 7.8 17.5 17.5zm-6.8 0c0-6-4.8-10.8-10.7-10.8-5.9 0-10.7 4.8-10.7 10.8 0 5.9 4.8 10.7 10.7 10.7 5.9 0 10.7-4.8 10.7-10.7zm-17.5 0c0-3.8 3.1-6.8 6.8-6.8 3.7 0 6.8 3 6.8 6.8 0 3.7-3.1 6.7-6.8 6.7-3.7 0-6.8-3-6.8-6.7z"/>
	<path id="Icon material-refresh" class="s1" d="m-537.8 202.8c-1-1.1-2.5-1.8-4.2-1.8-3.3 0-6 2.7-6 6 0 3.3 2.7 6 6 6 2.8 0 5.1-1.9 5.8-4.5h-1.6c-0.6 1.7-2.2 3-4.2 3-2.5 0-4.5-2-4.5-4.5 0-2.5 2-4.5 4.5-4.5 1.2 0 2.4 0.5 3.2 1.3l-2.4 2.4h5.2v-5.2z"/>
	<g id="Group 56">
		<path id="Path 64" fill-rule="evenodd" class="s2" d="m-532.1 57h-12.9v-16.4c0.3-0.6 0.8-0.8 1.5-0.8 2.6 0.1 5.3 0 8 0.1 0.3 0 0.7 0.2 1 0.4q1.4 1.2 2.6 2.6c0.2 0.2 0.4 0.6 0.4 1 0.1 0.9 0 1.9 0.1 2.8 0 0.3 0.1 0.6 0.2 0.8q1.5 2.1 0.6 4.5c-0.1 0.2 0 0.5 0.1 0.7 0.7 0.7 1.4 1.4 2.1 2.1 0.8 0.8 0.8 1.5-0.3 2.2h-0.6c-0.7-0.7-1.4-1.3-2.1-2-0.1 0.8 0 1.6-0.7 2zm-3.3-16.5c-0.3 0-0.5 0-0.7 0-2.4 0-4.9 0-7.4 0-0.6 0-0.8 0.2-0.8 0.9q0 7 0 14.1c0 0.6 0.2 0.8 0.8 0.8 3.3 0 6.5 0 9.8 0 1.8 0 1.6 0.3 1.6-1.7 0-0.5-0.2-0.7-0.7-0.4-2.1 0.8-4.1 0.2-5.4-1.6-0.2-0.2-0.5-0.3-0.8-0.4-1 0-2.1 0-3.2 0-0.3 0-0.6-0.2-0.9-0.3 0.3-0.1 0.6-0.3 0.9-0.3 1.1-0.1 2.3 0 3.4 0-0.4-2 0-3.7 1.6-4.8 1.6-1.2 3.3-1.2 5-0.3v-2.7c-0.7 0-1.4 0-2 0-0.8 0-1.2-0.4-1.2-1.2 0-0.6 0-1.3 0-2.1zm4.5 9.7c0-2-1.7-3.7-3.7-3.7-2 0-3.7 1.7-3.7 3.7 0 2 1.7 3.7 3.8 3.7 2 0 3.6-1.7 3.6-3.7zm-1 3.4c0.9 0.8 1.8 1.7 2.6 2.5 0.1 0.1 0.4 0 0.7 0-0.1-0.2 0-0.5-0.1-0.6-0.8-0.9-1.7-1.7-2.5-2.5-0.2 0.2-0.4 0.4-0.7 0.6zm-1-10.5q-0.9-0.9-1.8-1.8c0 0.4-0.1 0.8 0 1.3 0 0.2 0.3 0.5 0.5 0.5 0.4 0.1 0.9 0 1.3 0z"/>
		<path id="Path 65" class="s2" d="m-538.7 43.5c-1.1 0-2.2 0-3.4 0-0.2 0-0.5-0.3-0.7-0.4 0.3-0.1 0.5-0.4 0.7-0.4q3.4 0 6.8 0c0.3 0 0.5 0.3 0.8 0.4-0.3 0.1-0.5 0.4-0.8 0.4-1.1 0-2.2 0-3.4 0z"/>
		<path id="Path 66" class="s2" d="m-538.7 45.4c-0.9 0-1.7 0-2.6-0.1-0.2 0-0.4-0.2-0.7-0.3 0.2-0.2 0.5-0.4 0.7-0.4q2.6-0.1 5.3 0c0.2 0 0.4 0.2 0.6 0.3-0.2 0.2-0.4 0.4-0.6 0.4-0.9 0.1-1.8 0.1-2.7 0.1z"/>
		<path id="Path 67" class="s2" d="m-540.5 46.9c0.6 0 1.1-0.1 1.7 0 0.2 0 0.3 0.2 0.5 0.4-0.2 0.1-0.3 0.3-0.5 0.3q-1.7 0.1-3.5 0c-0.2 0-0.3-0.2-0.5-0.3 0.2-0.2 0.3-0.4 0.5-0.4 0.6-0.1 1.2 0 1.8 0z"/>
		<path id="Path 68" class="s2" d="m-531.7 46.9c-0.5 0-1.1 0.1-1.6 0-0.2 0-0.3-0.2-0.5-0.3 0.2-0.2 0.3-0.4 0.5-0.4q1.6-0.1 3.3 0c0.1 0 0.3 0.2 0.4 0.4-0.1 0.1-0.3 0.3-0.5 0.3-0.5 0.1-1.1 0-1.6 0z"/>
		<path id="Path 69" class="s2" d="m-540.8 54.1c-0.5 0-1 0.1-1.5 0-0.2 0-0.3-0.2-0.5-0.4 0.2-0.1 0.3-0.3 0.5-0.3q1.5-0.1 3.1 0c0.1 0 0.3 0.2 0.5 0.3-0.2 0.2-0.4 0.4-0.5 0.4-0.6 0.1-1.1 0-1.6 0z"/>
		<path id="Path 70" fill-rule="evenodd" class="s2" d="m-538.2 51c0-1.9 1.6-3.4 3.5-3.4 1.9 0 3.4 1.6 3.4 3.5 0 1.9-1.6 3.4-3.5 3.4-1.9 0-3.4-1.6-3.4-3.5zm3.5 2.7c1.4 0 2.6-1.2 2.6-2.7 0-1.4-1.2-2.6-2.7-2.6-1.5 0-2.6 1.2-2.6 2.7 0 1.5 1.2 2.6 2.7 2.6z"/>
	</g>
</svg>