<svg width="29" height="41" viewBox="0 0 29 41" fill="none" xmlns="http://www.w3.org/2000/svg">
<path d="M28.469 14.2345C28.469 12.3652 28.1008 10.5142 27.3855 8.78719C26.6701 7.06018 25.6216 5.49098 24.2998 4.16919C22.978 2.84739 21.4088 1.79889 19.6818 1.08354C17.9548 0.368186 16.1038 0 14.2345 0C12.3652 0 10.5142 0.368186 8.78719 1.08354C7.06018 1.79889 5.49099 2.84739 4.16919 4.16919C2.84739 5.49098 1.79889 7.06018 1.08354 8.78719C0.368186 10.5142 -2.78548e-08 12.3652 0 14.2345C0 17.055 0.831702 19.6782 2.24702 21.8906H2.23075L14.2345 40.67L26.2383 21.8906H26.224C27.6899 19.6062 28.4691 16.9488 28.469 14.2345ZM14.2345 20.335C12.6165 20.335 11.0649 19.6923 9.9208 18.5482C8.77673 17.4041 8.134 15.8525 8.134 14.2345C8.134 12.6165 8.77673 11.0649 9.9208 9.9208C11.0649 8.77673 12.6165 8.134 14.2345 8.134C15.8525 8.134 17.4041 8.77673 18.5482 9.9208C19.6923 11.0649 20.335 12.6165 20.335 14.2345C20.335 15.8525 19.6923 17.4041 18.5482 18.5482C17.4041 19.6923 15.8525 20.335 14.2345 20.335Z" fill="#586249"/>
<circle cx="14.336" cy="14.336" r="10.6759" fill="white"/>
<path d="M17.1023 7C14.8745 7.74261 12.8588 10.2887 12.1162 13.5774C11.3736 16.8661 12.1162 19.9426 13.7075 21.64C15.9354 20.8974 17.951 18.3513 18.6936 15.0626C19.4362 11.7739 18.6936 8.69739 17.1023 7Z" fill="#E2ECCB"/>
<path d="M9.35804 11.9861C8.72152 13.2591 8.9337 15.1687 9.99457 16.8661C11.0554 18.5635 12.6467 19.5183 14.0259 19.6243C14.6624 18.3513 14.4502 16.4417 13.3893 14.7443C12.4346 13.047 10.7372 11.9861 9.35804 11.9861Z" fill="#586249"/>
</svg>
