<svg width="20" height="20" viewBox="0 0 20 20" fill="none" xmlns="http://www.w3.org/2000/svg">
<g clip-path="url(#clip0_93_1595)">
<path d="M9.0722 2.80551C10.2756 2.80442 11.4523 3.16026 12.4534 3.82804C13.4546 4.49582 14.2351 5.44552 14.6964 6.55701C15.1577 7.66849 15.279 8.89182 15.0449 10.0722C14.8108 11.2527 14.2318 12.3371 13.3813 13.1884C12.5307 14.0398 11.4468 14.6197 10.2666 14.8549C9.0864 15.0901 7.86296 14.9699 6.75105 14.5096C5.63914 14.0494 4.68873 13.2697 4.02004 12.2691C3.35135 11.2686 2.99442 10.0923 2.99442 8.88885C3.00172 7.27866 3.64422 5.73641 4.78229 4.5973C5.92036 3.45819 7.46202 2.81428 9.0722 2.80551ZM9.0722 1.66663C7.64378 1.66663 6.24744 2.0902 5.05975 2.88379C3.87206 3.67738 2.94637 4.80533 2.39974 6.12502C1.8531 7.44471 1.71008 8.89686 1.98875 10.2978C2.26742 11.6988 2.95527 12.9857 3.96532 13.9957C4.97536 15.0058 6.26224 15.6936 7.66322 15.9723C9.06419 16.251 10.5163 16.1079 11.836 15.5613C13.1557 15.0147 14.2837 14.089 15.0773 12.9013C15.8708 11.7136 16.2944 10.3173 16.2944 8.88885C16.2944 6.9734 15.5335 5.1364 14.1791 3.78197C12.8247 2.42754 10.9877 1.66663 9.0722 1.66663Z" fill="#555554"/>
<path d="M19.4449 18.4944L15.3504 14.3722L14.5615 15.1555L18.656 19.2777C18.7074 19.3295 18.7685 19.3707 18.8359 19.3989C18.9032 19.4271 18.9755 19.4417 19.0484 19.4419C19.1214 19.4422 19.1938 19.4281 19.2613 19.4004C19.3289 19.3727 19.3903 19.332 19.4421 19.2805C19.4939 19.2291 19.535 19.168 19.5632 19.1006C19.5914 19.0333 19.606 18.961 19.6063 18.888C19.6065 18.815 19.5924 18.7427 19.5647 18.6752C19.537 18.6076 19.4963 18.5462 19.4449 18.4944Z" fill="#555554"/>
</g>
<defs>
<clipPath id="clip0_93_1595">
<rect width="20" height="20" rx="4" fill="white"/>
</clipPath>
</defs>
</svg>
